HIERARCHY
ROOT Hips
{
  OFFSET 0.000000 0.000000 0.000000
  CHANNELS 6 Xposition Yposition Zposition Xrotation Yrotation Zrotation
  JOINT Spine
  {
    OFFSET 0.520878 23.793947 -2.439495
    CHANNELS 3 Xrotation Yrotation Zrotation
    JOINT Chest
    {
      OFFSET 0.520878 23.793947 -2.439495
      CHANNELS 3 Xrotation Yrotation Zrotation
      JOINT Neck
      {
        OFFSET 0.443188 7.591809 -3.735129
        CHANNELS 3 Xrotation Yrotation Zrotation
        JOINT Head
        {
          OFFSET 1.673544 5.873951 -7.488974
          CHANNELS 3 Xrotation Yrotation Zrotation
          End Site
          {
            OFFSET 0.502063 1.762185 -2.246692
          }
        }
      }
      JOINT LeftShoulder
      {
        OFFSET 16.319328 -1.544265 2.223764
        CHANNELS 3 Xrotation Yrotation Zrotation
        JOINT LeftArm
        {
          OFFSET 0.588390 -20.940018 -12.470122
          CHANNELS 3 Xrotation Yrotation Zrotation
          JOINT LeftForeArm
          {
            OFFSET -7.452203 11.043894 -20.793748
            CHANNELS 3 Xrotation Yrotation Zrotation
            JOINT LeftHand
            {
              OFFSET -1.706953 2.799572 -1.740932
              CHANNELS 3 Xrotation Yrotation Zrotation
              End Site
              {
                OFFSET -0.512086 0.839871 -0.522280
              }
            }
          }
        }
      }
      JOINT RightShoulder
      {
        OFFSET -16.319328 1.544265 -2.223764
        CHANNELS 3 Xrotation Yrotation Zrotation
        JOINT RightArm
        {
          OFFSET 1.020263 -19.568193 -11.297847
          CHANNELS 3 Xrotation Yrotation Zrotation
          JOINT RightForeArm
          {
            OFFSET 11.011937 7.390574 -20.442338
            CHANNELS 3 Xrotation Yrotation Zrotation
            JOINT RightHand
            {
              OFFSET 2.653103 1.945053 -2.368092
              CHANNELS 3 Xrotation Yrotation Zrotation
              End Site
              {
                OFFSET 0.795931 0.583516 -0.710427
              }
            }
          }
        }
      }
    }
  }
  JOINT LeftUpLeg
  {
    OFFSET 11.976339 0.068635 0.477129
    CHANNELS 3 Xrotation Yrotation Zrotation
    JOINT LeftLeg
    {
      OFFSET 7.702811 -40.666112 -8.595169
      CHANNELS 3 Xrotation Yrotation Zrotation
      JOINT LeftFoot
      {
        OFFSET 17.323279 -37.894955 6.510615
        CHANNELS 3 Xrotation Yrotation Zrotation
        End Site
        {
          OFFSET 5.196984 -11.368487 1.953185
        }
      }
    }
  }
  JOINT RightUpLeg
  {
    OFFSET -11.976339 -0.068635 -0.477129
    CHANNELS 3 Xrotation Yrotation Zrotation
    JOINT RightLeg
    {
      OFFSET -6.798754 -40.366094 -1.066918
      CHANNELS 3 Xrotation Yrotation Zrotation
      JOINT RightFoot
      {
        OFFSET -2.441711 -31.654414 25.762620
        CHANNELS 3 Xrotation Yrotation Zrotation
        End Site
        {
          OFFSET -0.732513 -9.496324 7.728786
        }
      }
    }
  }
}
MOTION
Frames: 20
Frame Time: 0.083333
-0.001054 59.998993 -2.131371 -2.029876 0.415221 3.090911 -2.029876 0.415221 3.090911 -2.246157 0.863945 1.262301 -3.154027 1.959734 0.594604 5.000000 0.000000 0.000000 2.382768 -0.988771 1.728185 1.098379 1.060922 0.498859 3.062842 27.784450 75.054375 0.000000 0.000000 0.000000 0.160702 0.889200 -1.525887 5.445063 0.895426 0.949005 0.000000 0.000000 0.000000 0.000000 0.000000 0.000000 -1.342110 0.880600 -5.656548 -4.365081 -4.277047 -9.910979 0.000000 0.000000 0.000000 1.508708 -0.314171 1.632570 15.470311 5.771276 11.151425 0.000000 0.000000 0.000000
-0.001221 59.997914 11.627441 -0.575535 0.414756 3.859669 -0.575535 0.414756 3.859669 -2.186692 1.380279 2.167629 -3.260083 3.189686 1.349488 5.000000 0.000000 0.000000 0.737143 -3.501189 6.074919 -4.998454 1.329485 0.979375 0.000000 0.000000 0.000000 0.000000 0.000000 0.000000 -0.799909 1.998810 -3.634498 3.921625 0.991606 0.804850 -29.392294 -27.264455 -50.449117 0.000000 0.000000 0.000000 -1.997976 0.848381 -6.282726 -4.476972 -4.145330 -9.171925 0.000000 0.000000 0.000000 1.159421 -0.428459 6.344857 19.047435 5.486199 11.836047 0.000000 0.000000 0.000000
-0.000237 59.992300 28.887176 1.182643 0.489989 6.218513 1.182643 0.489989 6.218513 -2.190720 1.883730 3.027991 -3.112322 4.055745 1.934724 5.000000 0.000000 0.000000 -4.548764 -6.924437 12.982905 -17.744807 1.811241 1.768047 67.308731 8.842753 50.210828 0.000000 0.000000 0.000000 -2.416427 4.569985 -8.438115 1.882080 1.076114 0.601189 -18.641874 -28.945767 -55.537070 0.000000 0.000000 0.000000 -2.136868 1.140336 -7.585798 -5.907129 -3.893094 -5.465961 0.000000 0.000000 0.000000 0.513222 -0.328318 7.823837 21.409990 4.930768 11.647387 0.000000 0.000000 0.000000
0.001528 59.980349 41.849895 6.016222 0.270157 9.423505 6.016222 0.270157 9.423505 -2.252964 2.159648 3.503604 -3.302155 4.613372 2.225264 5.000000 0.000000 0.000000 -12.233821 -9.431479 20.139328 -35.329537 2.939512 2.771736 68.497722 12.390704 32.099627 0.000000 0.000000 0.000000 -1.023965 8.784733 -15.420515 0.014379 0.500944 0.181956 -8.002303 -30.041408 -61.286238 0.000000 0.000000 0.000000 1.737795 3.561596 -11.420629 -9.294209 -2.331879 6.244121 0.000000 0.000000 0.000000 -0.436866 -0.119857 8.390059 25.560963 3.847240 10.983442 0.000000 0.000000 0.000000
0.001831 59.975915 46.046810 11.815246 -0.298678 12.104874 11.815246 -0.298678 12.104874 -1.228233 2.440225 4.384812 -2.559217 5.349579 2.986852 5.000000 0.000000 0.000000 -18.404950 -10.387250 24.920649 -45.778391 4.263602 3.380972 61.648153 12.955024 28.824038 0.000000 0.000000 0.000000 2.021558 9.707344 -15.797450 -0.781804 0.123757 -0.040287 -12.292850 -29.849177 -59.435038 0.000000 0.000000 0.000000 17.937104 11.737032 -17.605951 -12.620958 0.878336 24.427343 0.000000 0.000000 0.000000 -0.542298 -0.090897 8.002320 30.645912 2.129077 9.224318 0.000000 0.000000 0.000000
0.000037 59.975014 40.374974 14.971807 -0.727049 13.839076 14.971807 -0.727049 13.839076 -0.584132 2.846922 5.398986 -1.829803 6.313746 3.916786 5.000000 0.000000 0.000000 -17.664601 -11.184855 26.415141 -45.665417 3.275217 3.206778 53.132477 12.981885 27.220284 0.000000 0.000000 0.000000 2.955412 8.994774 -14.310478 -0.512700 0.347526 0.066722 -16.246178 -29.413587 -57.238568 0.000000 0.000000 0.000000 42.171647 23.109419 -20.436180 -9.360404 3.532673 31.432772 0.000000 0.000000 0.000000 -1.756132 0.219775 7.042083 32.261301 1.061292 7.338091 0.000000 0.000000 0.000000
-0.002782 59.977107 26.077590 14.337112 -0.655378 14.485430 14.337112 -0.655378 14.485430 -0.810728 2.802778 5.234650 -1.749129 6.281278 3.940447 5.000000 0.000000 0.000000 -10.877336 -12.190659 25.149546 -37.827702 1.751129 2.666302 66.016142 6.390951 62.497601 0.000000 0.000000 0.000000 3.062218 6.664390 -10.516262 -0.995895 0.897815 0.203399 -14.241790 -29.818164 -58.829221 0.000000 0.000000 0.000000 45.718796 23.689369 -18.182937 -7.995538 2.460271 24.988424 0.000000 0.000000 0.000000 -1.597440 0.185847 6.813369 33.463801 0.580840 6.570786 0.000000 0.000000 0.000000
-0.004337 59.980812 11.842710 9.301207 0.046607 13.794247 9.301207 0.046607 13.794247 -1.827229 2.489546 4.262286 -2.330361 5.464932 3.165665 5.000000 0.000000 0.000000 -1.202342 -12.250819 21.232396 -22.757687 1.128171 1.828846 0.000000 0.000000 0.000000 0.000000 0.000000 0.000000 1.714535 6.383668 -10.468656 -1.518561 1.362660 0.298633 -16.895610 -28.759468 -55.394123 0.000000 0.000000 0.000000 32.210071 16.469770 -14.957936 -4.575239 1.370325 16.816936 0.000000 0.000000 0.000000 -0.800530 -0.002704 7.042096 33.404805 0.697134 6.806609 0.000000 0.000000 0.000000
-0.002675 59.984607 6.748150 2.549397 0.802568 11.084941 2.549397 0.802568 11.084941 -3.111528 2.348829 3.504361 -3.215796 4.918344 2.433962 5.000000 0.000000 0.000000 3.171548 -8.733496 13.990187 -7.201349 0.958747 0.934940 0.000000 0.000000 0.000000 0.000000 0.000000 0.000000 0.583662 7.148977 -12.136569 -2.875906 1.701779 0.275486 0.000000 0.000000 0.000000 0.000000 0.000000 0.000000 6.175026 4.084405 -8.985418 -6.789523 -0.825839 9.438808 0.000000 0.000000 0.000000 0.887539 -0.399102 7.610265 28.339125 1.493804 7.131331 0.000000 0.000000 0.000000
0.001871 59.982989 11.730118 1.241610 0.448090 5.255904 1.241610 0.448090 5.255904 -2.521166 2.105258 3.239280 -2.690967 4.456197 2.300087 5.000000 0.000000 0.000000 4.275900 -5.542677 8.837780 -1.186896 0.452711 0.307637 -36.115188 14.093960 31.790829 0.000000 0.000000 0.000000 -3.305354 7.857775 -15.131622 -13.328072 0.427356 -1.127851 0.000000 0.000000 0.000000 0.000000 0.000000 0.000000 -3.543472 -0.125178 -2.986682 -5.612683 -3.629540 -3.692491 0.000000 0.000000 0.000000 4.778009 -1.233658 6.420810 19.483246 2.326778 6.756722 0.000000 0.000000 0.000000
0.008097 59.983377 21.735752 0.964054 -0.019679 -0.057264 0.964054 -0.019679 -0.057264 -1.903171 0.347701 0.369158 -2.250435 0.748058 -0.005686 5.000000 0.000000 0.000000 2.827647 -4.975798 8.194771 2.046774 -0.624917 -0.500052 0.000000 0.000000 0.000000 0.000000 0.000000 0.000000 -11.791892 9.723398 -23.503908 -39.254508 -0.735865 -3.786997 0.000000 0.000000 0.000000 0.000000 0.000000 0.000000 -4.220299 -0.650728 -0.947304 -7.719285 -6.580008 -11.098441 0.000000 0.000000 0.000000 7.428434 -1.657301 4.098024 8.130816 0.234167 2.856384 0.000000 0.000000 0.000000
0.012385 59.983794 32.312709 1.535146 -0.498962 -6.288563 1.535146 -0.498962 -6.288563 -1.584741 -1.666067 -3.228803 -2.060201 -3.145666 -2.727342 5.000000 0.000000 0.000000 -7.497106 -5.627833 10.219809 6.286476 -1.643552 -1.514882 0.000000 0.000000 0.000000 0.000000 0.000000 0.000000 -20.980502 11.832443 -35.402211 -67.159653 -1.437192 -6.397223 18.796815 13.593005 27.255502 0.000000 0.000000 0.000000 -2.863089 -0.640898 0.554141 -5.796123 -6.063395 -13.228395 0.000000 0.000000 0.000000 5.691643 -1.055059 0.737356 -8.389804 -11.429950 -10.009341 0.000000 0.000000 0.000000
0.013048 59.989515 38.110472 4.229755 -1.026136 -13.487327 4.229755 -1.026136 -13.487327 -1.187906 -3.051418 -5.880483 -1.441913 -5.977102 -4.840881 5.000000 0.000000 0.000000 -20.808136 -3.341497 7.248948 17.857396 -3.028407 -3.594196 -75.019330 -28.316092 13.351168 0.000000 0.000000 0.000000 -28.581208 10.971283 -41.283314 -87.113108 0.081587 -8.449322 0.000000 0.000000 0.000000 0.000000 0.000000 0.000000 -4.063620 -0.741143 -0.034881 -0.314944 -2.197234 -10.716425 0.000000 0.000000 0.000000 2.840780 -0.305248 -3.551131 -26.595833 -33.878956 -27.519320 0.000000 0.000000 0.000000
0.009750 59.986849 35.126314 2.707267 -1.735724 -20.762205 2.707267 -1.735724 -20.762205 -0.408117 -3.667597 -7.314903 -0.657532 -7.524338 -6.173397 5.000000 0.000000 0.000000 -26.067957 -2.066605 4.350063 27.194726 -3.550389 -5.056762 -75.763475 -23.444413 15.618161 0.000000 0.000000 0.000000 -29.346058 10.649738 -41.357625 -100.152209 0.177073 -9.690432 42.007705 5.088352 49.320034 0.000000 0.000000 0.000000 -6.079468 -1.375035 1.559565 4.518312 0.964256 -8.257146 0.000000 0.000000 0.000000 2.770125 0.290926 -12.870149 -37.818115 -52.402699 -38.151985 0.000000 0.000000 0.000000
0.007090 59.988323 25.876654 2.339934 -2.237820 -26.812091 2.339934 -2.237820 -26.812091 -0.031393 -4.005684 -8.125645 -0.010607 -8.523798 -7.127760 5.000000 0.000000 0.000000 -22.119749 -2.157780 4.121343 19.887357 -3.498366 -4.065404 -81.031865 -17.161923 20.002745 0.000000 0.000000 0.000000 -28.267060 11.078942 -41.174928 -97.873108 -3.459961 -8.318944 78.987587 -33.242725 5.622681 0.000000 0.000000 0.000000 -6.036404 -1.529477 2.603066 7.801216 2.850254 -7.471827 0.000000 0.000000 0.000000 4.391404 0.659640 -22.475128 -26.222396 -60.121252 -51.623851 0.000000 0.000000 0.000000
0.006355 59.989175 15.015497 4.381041 -1.982754 -29.022111 4.381041 -1.982754 -29.022111 -0.245753 -3.899158 -7.808294 0.542150 -8.389425 -7.108909 5.000000 0.000000 0.000000 -16.348887 -2.809273 5.706921 9.580339 -3.739332 -2.972651 -86.244177 -9.148290 23.998875 0.000000 0.000000 0.000000 -28.911576 10.281783 -39.613625 -78.957904 -8.937262 -5.606839 0.000000 0.000000 0.000000 0.000000 0.000000 0.000000 -4.029957 -1.114701 2.109915 8.641341 3.224873 -8.285965 0.000000 0.000000 0.000000 1.810073 0.835596 -27.177683 -1.044045 -49.087460 -58.549871 0.000000 0.000000 0.000000
0.008312 59.989131 4.748361 4.321962 -1.813280 -26.377188 4.321962 -1.813280 -26.377188 0.397771 -3.642401 -7.582129 1.171860 -8.066025 -6.934801 5.000000 0.000000 0.000000 -17.633785 -1.049066 1.599002 1.524186 -4.093974 -2.226901 -88.049656 -9.150596 24.496537 0.000000 0.000000 0.000000 -28.491152 9.247666 -35.865983 -45.253709 -10.142175 -4.919669 56.750532 -25.201305 -37.566240 0.000000 0.000000 0.000000 -2.187947 -0.658171 1.296177 9.353160 3.598433 -8.409911 0.000000 0.000000 0.000000 -0.833301 0.643817 -25.998030 16.063475 -31.258966 -47.848025 0.000000 0.000000 0.000000
0.012045 59.988212 -3.318255 4.013184 -1.611169 -22.493201 4.013184 -1.611169 -22.493201 1.187824 -3.551026 -7.746790 1.430881 -8.263352 -7.183897 5.000000 0.000000 0.000000 -16.100012 2.426827 -6.644303 2.523914 -5.044396 -2.816724 0.000000 0.000000 0.000000 0.000000 0.000000 0.000000 -26.836414 8.443880 -31.785994 -16.583058 -9.367330 -4.563328 0.000000 0.000000 0.000000 0.000000 0.000000 0.000000 -1.591770 -0.502757 1.025507 8.103866 3.011676 -7.494984 0.000000 0.000000 0.000000 -2.171524 0.548416 -21.301063 22.859706 -15.653482 -26.881490 0.000000 0.000000 0.000000
0.015309 59.989645 -5.734141 3.901525 -1.428011 -19.558428 3.901525 -1.428011 -19.558428 2.008620 -3.460410 -7.937436 2.237162 -8.615274 -7.693030 5.000000 0.000000 0.000000 -13.818683 5.070008 -12.220634 5.261549 -5.727467 -3.487041 0.000000 0.000000 0.000000 0.000000 0.000000 0.000000 -21.697122 7.304919 -24.396436 6.664728 -7.289677 -3.177396 0.000000 0.000000 0.000000 0.000000 0.000000 0.000000 -1.251643 -0.586915 1.746188 7.523383 2.963420 -4.750275 0.000000 0.000000 0.000000 -3.307904 0.579184 -12.750512 22.677647 -7.609533 -11.761852 0.000000 0.000000 0.000000
0.015696 59.990746 -2.448575 3.799154 -1.205588 -16.523888 3.799154 -1.205588 -16.523888 2.148232 -3.458424 -8.016195 2.475248 -8.634004 -7.772149 5.000000 0.000000 0.000000 -10.303951 4.689585 -10.447357 7.986832 -5.075094 -3.487611 0.000000 0.000000 0.000000 0.000000 0.000000 0.000000 -14.103627 5.327132 -14.366628 8.114776 -4.364556 -1.175023 0.000000 0.000000 0.000000 0.000000 0.000000 0.000000 -0.877170 -0.788152 3.081404 6.946766 2.988776 -1.149761 0.000000 0.000000 0.000000 -4.481592 0.717458 -2.825025 21.372367 -3.952644 -4.603784 0.000000 0.000000 0.000000
